<?xml version="1.0" standalone="no"?>
<!DOCTYPE svg PUBLIC "-//W3C//DTD SVG 20010904//EN"
 "http://www.w3.org/TR/2001/REC-SVG-20010904/DTD/svg10.dtd">
<svg version="1.0" xmlns="http://www.w3.org/2000/svg"
 width="198.000000pt" height="138.000000pt" viewBox="0 0 198.000000 138.000000"
 preserveAspectRatio="xMidYMid meet">

<g transform="translate(0.000000,138.000000) scale(0.100000,-0.100000)"
fill="#000000" stroke="none">
<path d="M1561 1286 c-42 -44 -39 -74 9 -92 19 -7 51 -13 71 -13 20 -1 42 -8
49 -16 14 -17 18 -147 6 -183 -7 -20 -12 -22 -39 -16 -39 9 -78 7 -90 -5 -5
-5 -30 1 -61 15 -53 25 -110 31 -121 14 -4 -6 5 -7 23 -4 19 4 46 -1 77 -15
38 -17 46 -25 42 -41 -6 -25 -8 -25 33 5 45 33 82 32 138 -7 64 -45 93 -49 52
-8 -13 13 -20 33 -20 60 0 37 2 40 20 30 20 -10 20 -10 0 23 -23 38 -38 127
-23 127 6 0 8 11 6 24 -4 18 -10 22 -24 19 -11 -3 -29 3 -41 13 -19 17 -21 17
-15 2 4 -12 1 -18 -9 -18 -8 0 -17 7 -21 16 -5 13 -7 13 -14 2 -7 -11 -11 -10
-19 2 -7 11 -10 11 -10 2 0 -7 -4 -11 -10 -7 -5 3 -6 13 -3 23 6 15 5 15 -10
3 -29 -23 -19 1 14 35 l31 32 51 -19 c29 -11 63 -27 75 -36 30 -23 131 -242
142 -308 9 -56 -2 -95 -26 -95 -14 0 -14 -3 -4 -15 19 -23 4 -30 -57 -28 -47
2 -53 0 -43 -13 10 -11 6 -17 -26 -30 -48 -20 -122 -13 -172 16 -19 12 -44 19
-54 17 -13 -4 -20 2 -24 21 -3 15 -11 43 -17 62 l-12 35 -3 -43 c-4 -52 26
-151 39 -131 5 9 9 10 9 2 0 -18 96 -36 164 -31 43 4 83 16 136 42 137 68 125
55 122 138 -2 68 -7 82 -75 218 l-73 145 -60 32 c-32 18 -68 33 -80 33 -11 0
-35 -15 -53 -34z"/>
<path d="M1453 1300 c-17 -7 -22 -16 -20 -39 2 -27 5 -29 27 -24 37 8 53 27
45 52 -7 23 -17 25 -52 11z"/>
<path d="M1385 1283 c-31 -8 -45 -23 -45 -49 0 -26 14 -30 54 -14 20 7 26 16
26 40 0 16 -3 29 -7 29 -5 -1 -17 -4 -28 -6z m12 -38 c-4 -8 -13 -15 -22 -15
-21 0 -19 28 3 32 22 5 26 2 19 -17z"/>
<path d="M1278 1253 c-20 -5 -25 -24 -5 -20 7 1 11 -7 10 -20 -2 -13 2 -23 7
-23 6 0 10 11 10 25 0 13 8 29 18 34 16 10 15 10 -3 10 -11 -1 -28 -3 -37 -6z"/>
<path d="M1230 1204 c0 -21 4 -33 10 -29 6 3 10 19 10 36 0 16 -4 29 -10 29
-5 0 -10 -16 -10 -36z"/>
<path d="M1169 1223 c-15 -4 -33 -52 -24 -62 2 -2 20 0 40 3 31 6 35 11 35 36
0 30 -9 34 -51 23z"/>
<path d="M1071 1166 c-27 -43 -26 -51 1 -32 12 9 30 16 40 16 21 0 22 4 8 31
-15 27 -25 24 -49 -15z"/>
<path d="M1030 1176 c0 -18 -35 -27 -49 -13 -8 8 -11 0 -10 -28 0 -34 2 -37 9
-17 10 24 45 30 53 10 3 -7 6 4 6 25 1 20 -1 37 -4 37 -3 0 -5 -6 -5 -14z"/>
<path d="M868 1143 c-10 -2 -18 -8 -18 -13 0 -5 -7 -7 -15 -4 -11 5 -15 -1
-15 -19 0 -22 -16 -37 -40 -37 -5 0 -11 10 -13 23 -3 16 -5 13 -6 -11 -1 -30
1 -32 27 -26 33 8 39 13 45 39 5 19 5 19 12 -1 6 -19 10 -21 41 -11 22 7 34
17 34 29 0 10 -6 18 -12 18 -9 0 -8 4 2 10 12 8 11 10 -5 9 -11 -1 -28 -3 -37
-6z"/>
<path d="M700 1094 c-19 -7 -27 -13 -17 -13 12 -1 17 -10 18 -28 l1 -28 10 30
c6 17 16 33 22 37 21 14 0 15 -34 2z"/>
<path d="M561 1031 c-23 -44 -23 -63 -1 -36 7 8 23 15 36 15 29 0 30 10 5 41
l-19 23 -21 -43z"/>
<path d="M483 1039 c-28 -8 -33 -14 -33 -39 0 -22 5 -30 18 -29 39 1 56 16 57
47 0 18 -2 32 -5 31 -3 0 -20 -5 -37 -10z"/>
<path d="M388 1013 c-29 -7 -21 -21 10 -16 l27 3 -25 -10 c-33 -15 -55 -50
-30 -50 6 0 10 7 10 16 0 13 7 15 30 11 28 -6 30 -4 30 23 0 31 -9 34 -52 23z"/>
<path d="M303 990 c-17 -7 -23 -18 -23 -40 0 -28 2 -30 28 -24 38 9 55 28 20
22 -36 -7 -38 19 -3 32 14 5 25 12 25 15 0 7 -22 5 -47 -5z"/>
<path d="M999 951 c-13 -10 -32 -34 -42 -52 l-18 -34 23 30 c12 17 34 40 47
53 29 27 23 29 -10 3z"/>
<path d="M142 932 c-11 -11 -33 -41 -48 -68 -27 -46 -28 -50 -25 -188 2 -138
3 -143 36 -214 l35 -74 102 5 c123 6 194 30 249 83 30 30 42 35 64 30 l26 -7
-26 40 c-25 36 -28 38 -55 28 -16 -6 -35 -25 -44 -43 -20 -42 -83 -84 -136
-91 -41 -6 -42 -5 -35 18 8 23 7 23 -24 -4 -39 -32 -80 -38 -73 -10 2 8 -3 10
-13 7 -24 -9 -54 24 -69 77 -8 26 -18 103 -21 171 -8 137 -6 146 58 214 28 29
31 30 65 18 20 -6 38 -17 40 -24 3 -7 0 -10 -7 -6 -7 5 -9 1 -4 -10 5 -14 3
-16 -11 -11 -10 4 -15 3 -11 -3 5 -8 -28 -50 -40 -50 -3 0 -5 8 -6 18 0 14 -2
14 -9 -3 -4 -12 -15 -27 -24 -34 -9 -7 -16 -25 -16 -40 0 -20 3 -23 10 -11 7
11 11 8 20 -15 6 -17 14 -52 17 -78 4 -32 9 -44 15 -35 14 21 41 -20 40 -62 0
-3 -3 -16 -7 -30 -7 -22 -6 -23 9 -11 9 7 24 32 34 55 26 58 46 71 104 69 42
-2 48 0 38 12 -16 20 19 69 68 95 20 10 30 19 22 20 -26 0 -76 -37 -99 -74
-18 -28 -29 -36 -53 -36 -20 0 -39 -9 -57 -29 l-28 -30 -35 47 c-69 95 -75
138 -22 167 71 38 90 96 37 116 -55 21 -71 21 -91 1z"/>
<path d="M1529 851 c14 -26 89 -36 132 -18 l34 14 -45 -4 c-29 -3 -60 1 -84
11 -48 20 -49 20 -37 -3z"/>
<path d="M1170 836 c0 -20 44 -46 78 -46 15 0 33 -5 40 -12 8 -8 15 -8 27 2
19 16 19 31 -1 56 -15 18 -15 18 -5 -3 6 -12 11 -24 11 -28 0 -11 -69 -1 -74
11 -3 7 -14 10 -25 7 -14 -3 -23 0 -27 11 -8 20 -24 21 -24 2z"/>
<path d="M1265 830 c3 -5 8 -10 11 -10 2 0 4 5 4 10 0 6 -5 10 -11 10 -5 0 -7
-4 -4 -10z"/>
<path d="M1130 802 c0 -5 7 -13 16 -16 10 -4 14 -1 12 6 -5 15 -28 23 -28 10z"/>
<path d="M1047 794 c-3 -3 -3 -13 0 -21 4 -11 2 -14 -8 -11 -8 3 -13 11 -11
17 1 7 -2 10 -8 6 -16 -10 -12 -40 9 -59 28 -25 64 -17 76 17 8 24 6 31 -10
43 -20 15 -38 18 -48 8z"/>
<path d="M730 751 c0 -5 6 -12 13 -15 16 -8 -23 0 -45 9 -13 5 -18 2 -18 -9 0
-10 9 -16 24 -16 13 0 38 -3 55 -6 28 -6 31 -4 31 20 0 22 -4 26 -30 26 -16 0
-30 -4 -30 -9z"/>
<path d="M1115 712 c-26 -32 -33 -57 -20 -71 2 -2 24 7 49 19 48 23 65 52 46
75 -20 24 -43 17 -75 -23z"/>
<path d="M1428 710 c-4 -19 -14 -62 -22 -95 -14 -59 -14 -60 4 -37 23 28 33
73 28 127 l-3 40 -7 -35z"/>
<path d="M930 695 c-13 -13 -21 -28 -18 -31 4 -3 11 4 18 15 15 30 48 27 56
-5 8 -32 27 -17 22 17 -5 35 -47 37 -78 4z"/>
<path d="M640 701 c0 -6 5 -13 10 -16 6 -3 10 1 10 9 0 9 -4 16 -10 16 -5 0
-10 -4 -10 -9z"/>
<path d="M1227 680 c-3 -13 0 -17 9 -13 14 5 20 -22 7 -30 -5 -2 -3 -2 4 -1 6
2 14 -3 17 -11 7 -20 40 -11 44 11 3 16 1 17 -7 4 -10 -13 -15 -8 -12 12 0 4
-7 4 -16 1 -9 -4 -14 -2 -11 3 3 5 -3 16 -13 26 -16 15 -17 15 -22 -2z"/>
<path d="M711 676 c12 -10 79 -16 79 -6 0 5 -19 10 -42 10 -23 0 -39 -2 -37
-4z"/>
<path d="M943 644 c-9 -23 11 -38 26 -20 13 16 7 36 -10 36 -5 0 -12 -7 -16
-16z"/>
<path d="M977 613 c-4 -3 -7 -11 -7 -17 0 -6 5 -5 12 2 6 6 9 14 7 17 -3 3 -9
2 -12 -2z"/>
<path d="M1098 609 c-22 -12 -22 -37 -2 -64 15 -20 15 -20 30 0 14 18 17 19
42 4 19 -10 26 -22 24 -37 -4 -25 13 -29 49 -9 27 14 28 47 2 68 -13 11 -17
10 -28 -5 -12 -16 -15 -16 -44 -1 -27 13 -30 19 -21 35 9 17 7 20 -12 20 -13
0 -31 -5 -40 -11z"/>
<path d="M421 593 c-1 -18 -67 -65 -104 -73 l-32 -8 31 -1 c18 -1 46 9 66 23
19 13 40 25 45 27 6 2 7 12 2 24 -4 11 -8 15 -8 8z"/>
<path d="M670 591 c0 -5 14 -14 30 -20 18 -6 28 -6 25 -1 -4 6 -13 10 -21 10
-8 0 -14 5 -14 10 0 6 -4 10 -10 10 -5 0 -10 -4 -10 -9z"/>
<path d="M891 547 c-10 -18 -10 -30 -2 -45 15 -28 14 -30 -11 -35 -14 -3 -9
-5 10 -4 26 2 37 -3 46 -22 9 -15 16 -20 20 -12 4 6 3 11 -2 11 -9 0 -23 35
-28 70 -1 8 -6 25 -11 38 l-9 23 -13 -24z"/>
<path d="M772 544 c-7 -8 -17 -12 -23 -9 -5 4 -4 -6 3 -20 l12 -27 8 23 c5 13
14 26 20 30 5 4 6 9 2 12 -5 3 -15 -1 -22 -9z"/>
<path d="M786 521 c-3 -5 1 -11 9 -15 9 -3 15 0 15 9 0 16 -16 20 -24 6z"/>
<path d="M1120 500 c0 -5 5 -10 10 -10 6 0 10 5 10 10 0 6 -4 10 -10 10 -5 0
-10 -4 -10 -10z"/>
<path d="M1406 463 c-6 -14 -5 -15 5 -6 7 7 10 15 7 18 -3 3 -9 -2 -12 -12z"/>
<path d="M1355 420 c-10 -11 -16 -22 -13 -25 3 -3 13 6 22 20 20 30 16 32 -9
5z"/>
<path d="M835 410 c-3 -5 -1 -10 4 -10 6 0 11 5 11 10 0 6 -2 10 -4 10 -3 0
-8 -4 -11 -10z"/>
<path d="M945 370 c3 -5 14 -10 23 -10 15 0 15 2 2 10 -20 13 -33 13 -25 0z"/>
<path d="M990 365 c0 -8 4 -15 10 -15 5 0 7 7 4 15 -4 8 -8 15 -10 15 -2 0 -4
-7 -4 -15z"/>
<path d="M1111 234 c0 -11 3 -14 6 -6 3 7 2 16 -1 19 -3 4 -6 -2 -5 -13z"/>
</g>
</svg>
